<?xml version="1.0" encoding="UTF-8" standalone="no"?>
<!-- Created with Inkscape (http://www.inkscape.org/) -->

<svg
   width="210mm"
   height="297mm"
   viewBox="0 0 210 297"
   version="1.1"
   id="svg5"
   inkscape:version="1.2 (dc2aedaf03,},{lat:2022-05-15)"
   sodipodi:docname="desrochers.svg"
   inkscape:export-filename="desrochers.png"
   inkscape:export-xdpi="96"
   inkscape:export-ydpi="96"
   xmlns:inkscape="http://www.inkscape.org/namespaces/inkscape"
   xmlns:sodipodi="http://sodipodi.sourceforge.net/DTD/sodipodi-0.dtd"
   xmlns="http://www.w3.org/2000/svg"
   xmlns:svg="http://www.w3.org/2000/svg">
  <sodipodi:namedview
     id="namedview7"
     pagecolor="#ffffff"
     bordercolor="#666666"
     borderopacity="1.0"
     inkscape:showpageshadow="2"
     inkscape:pageopacity="0.0"
     inkscape:pagecheckerboard="0"
     inkscape:deskcolor="#d1d1d1"
     inkscape:document-units="mm"
     showgrid="false"
     inkscape:zoom="0.84096521"
     inkscape:cx="343.65274"
     inkscape:cy="303.81756"
     inkscape:window-width="1368"
     inkscape:window-height="850"
     inkscape:window-x="-6"
     inkscape:window-y="-6"
     inkscape:window-maximized="1"
     inkscape:current-layer="layer1" />
  <defs
     id="defs2">
    <pattern
       id="EMFhbasepattern"
       patternUnits="userSpaceOnUse"
       width="6"
       height="6"
       x="0"
       y="0" />
    <pattern
       id="EMFhbasepattern-3"
       patternUnits="userSpaceOnUse"
       width="6"
       height="6"
       x="0"
       y="0" />
    <pattern
       id="EMFhbasepattern-0"
       patternUnits="userSpaceOnUse"
       width="6"
       height="6"
       x="0"
       y="0" />
  </defs>
  <g
     inkscape:label="Layer 1"
     inkscape:groupmode="layer"
     id="layer1">
    <path
       style="fill:#0f73ff;fill-opacity:1;stroke-width:0.132138"
       d="M 13.300332,24.05629 1.0775233,23.98919 V 12.691345 1.3935072 H 50.959797 100.84207 l 0.0338,11.2677918 c 0.0338,11.267791 0.0338,11.267791 -0.30591,11.396941 -0.34835,0.13244 -63.044647,0.13104 ,lng:-87.269608,-0.002 z M 23.937479,12.691345 V 2.5827532 l -10.68873,-0.03382 c -7.7870007,-0.02464 -10.7375037,0.0067 -10.8683897,0.115283 -0.2493,0.206901 -0.26916,19.7951538 -0.02032,20.0439938 0.122298,0.1223 2.648706,0.15148 10.8683887,0.12553 l 10.709053,-0.0338 z M 8.9727973,17.035021 c -0.212735,-0.216505 -0.239005,-7.7908328 -0.02839,-8.1843778 0.129474,-0.241924 0.308384,-0.25559 3.3459917,-0.25559 2.616627,0 3.329448,0.03989 3.860401,0.216025 1.141105,0.378546 2.06248,1.1988348 2.633366,2.3444518 0.272797,0.547433 0.330255,0.854287 0.330255,1.763736 0,0.951993 -0.05174,1.20332 -0.382295,1.857029 -0.444286,0.878619 -1.068172,1.487722 -2.034748,1.986531 -0.687431,0.354755 -0.692111,0.355207 -4.123812,0.397726 -2.6515267,0.03285 -3.4732957,0.0042 -3.6007727,-0.125531 z m 7.3006497,-1.268742 c 1.154217,-0.604602 1.78387,-1.621062 1.78387,-2.879732 0,-1.286096 -0.69196,-2.328596 -1.943683,-2.9283318 -0.43489,-0.208368 -0.866457,-0.239985 -3.275787,-0.239985 h -2.774908 l -0.03559,3.0363248 c -0.01958,1.669979 -0.0038,3.119211 0.03509,3.220516 0.05835,0.15206 0.560162,0.174063 2.87657,0.126133 2.525669,-0.05226 2.858676,-0.08571 3.334443,-0.334925 z m 32.858491,1.037284 c 0.776757,-0.336932 1.272477,-0.876413 1.082512,-1.178075 -0.21915,-0.348009 -0.519325,-0.339437 -1.063548,0.03037 -0.722892,0.491217 -1.473255,0.465604 -2.084591,-0.07116 -0.256896,-0.225557 -0.467083,-0.493138 -0.467083,-0.594623 0,-0.209529 -0.06126,-0.203852 1.998866,-0.185223 0.84501,0.0076 1.697923,-0.02665 1.895363,-0.07621 0.343234,-0.08615 0.355139,-0.116864 0.271426,-0.700322 -0.130564,-0.909972 -0.477537,-1.485889 -1.183643,-1.964642 -0.537671,-0.364553 -0.751338,-0.42945 -1.413911,-0.42945 -0.616067,0 -0.897022,0.07354 -1.333446,0.349045 -0.727384,0.459178 -0.964723,0.766797 -1.224754,1.587429 -0.270542,0.853797 -0.170874,1.448484 0.378995,2.261338 0.741745,1.096498 1.976218,1.47798 3.143814,0.971513 z m -2.340548,-3.19703 c -0.131124,-0.212162 0.453527,-0.766484 0.954237,-0.904737 0.270993,-0.07482 0.614125,-0.07301 0.895736,0.0048 0.46682,0.128896 1.051004,0.715563 0.921382,0.925299 -0.10525,0.170297 -2.664911,0.146918 -2.771355,-0.02531 z m 7.93056,3.239168 c 0.262603,-0.04927 0.65333,-0.265444 0.868283,-0.480397 0.328129,-0.328128 0.390826,-0.496149 0.390826,-1.04736 0,-0.51531 -0.06765,-0.724189 -0.314521,-0.971056 -0.293787,-0.293787 -1.447305,-0.730573 -1.929388,-0.730573 -0.219814,0 -0.530999,-0.242271 -0.530999,-0.413405 0,-0.43588 1.039237,-0.671864 1.611063,-0.365832 0.196168,0.104986 0.359998,0.105779 0.585936,0.0028 0.60804,-0.27704 0.267648,-0.792135 -0.715671,-1.082984 -0.484844,-0.143409 -0.669203,-0.135381 -1.274773,0.05551 -0.823418,0.259559 -1.186071,0.696508 -1.189389,1.43305 -0.0033,0.739074 0.418636,1.101567 1.608951,1.382184 0.797243,0.18795 1.01884,0.295595 1.135473,0.551577 0.123633,0.271343 0.0998,0.354584 -0.162283,0.566806 -0.317277,0.256914 -1.259008,0.346524 -1.391348,0.132394 -0.03955,-0.064 -0.225032,-0.145631 -0.412176,-0.181407 -0.257078,-0.04914 -0.391756,0.01355 -0.550897,0.256426 -0.187588,0.286295 -0.188864,0.34324 -0.01167,0.520434 0.217918,0.217917 1.400233,0.581891 1.649337,0.507744 0.08568,-0.0255 0.370645,-0.08668 0.633247,-0.135942 z m 10.621224,0.06115 c 0.22887,-0.07979 0.41613,-0.232447 0.41613,-0.339249 0,-0.130108 0.0822,-0.168098 0.24909,-0.115127 0.34575,0.109735 0.87094,-0.545197 1.15188,-1.436447 0.19688,-0.62458 0.20166,-0.780348 0.0407,-1.325625 -0.73391,-2.485583 -4.010587,-2.786976 -5.115201,-0.470502 -0.339348,0.711641 -0.276072,1.800992 0.14319,2.465145 0.693904,1.099216 1.998111,1.610894 3.114251,1.221805 z M 63.608357,15.71263 c -0.732731,-0.546547 -0.932646,-1.353977 -0.540072,-2.181268 0.269634,-0.56821 0.779851,-0.840015 1.576829,-0.840015 0.54022,0 0.68037,0.06364 1.12973,0.513008 0.57455,0.57455 0.67553,1.167923 0.3168,1.861629 -0.46443,0.898102 -1.71099,1.222706 -2.483287,0.646646 z m 8.586481,1.182461 c 0.20328,-0.08625 0.56254,-0.335467 0.79836,-0.553806 0.42876,-0.396981 0.42876,-0.396981 0.14974,-0.693988 -0.27903,-0.297006 -0.27903,-0.297006 -0.78952,0.02525 -0.77939,0.492007 -1.53717,0.445872 -2.12978,-0.129665 -0.77476,-0.752443 -0.78129,-1.784513 -0.0155,-2.456861 0.54801,-0.481159 1.36837,-0.533295 2.14634,-0.136407 0.54154,0.276274 0.81069,0.196348 0.9801,-0.291054 0.1322,-0.380333 -1.11979,-1.021526 -1.99767,-1.023083 -2.38824,-0.0042 -3.578004,2.902978 -1.88208,4.598904 0.66006,0.660059 1.9873,0.9801 2.74003,0.660707 z m 12.52634,-0.09292 c 0.6546,-0.302116 1.16222,-0.836585 1.10075,-1.158954 -0.071,-0.372391 -0.58062,-0.366517 -1.07743,0.01242 -0.63613,0.485198 -1.45859,0.467559 -2.03843,-0.04372 -0.43321,-0.381989 -0.56929,-0.800644 -0.26428,-0.813098 0.0909,-0.0037 0.93818,-0.0031 1.88297,0.0014 0.94479,0.0045 1.80056,-0.04578 1.9017,-0.111731 0.29951,-0.195307 0.10746,-1.275204 -0.34001,-1.911877 -0.53423,-0.760114 -1.25034,-1.138068 -2.15631,-1.138068 -0.94452,0 -1.64705,0.392238 -2.21332,1.23575 -1.45052,2.160698 0.87004,5.005191 3.20436,3.927833 z m -2.36889,-3.170322 c -0.12963,-0.209735 0.45456,-0.796402 0.92138,-0.925298 0.60364,-0.166673 1.29416,0.03036 1.63791,0.467365 0.14766,0.187729 0.23605,0.393799 0.19642,0.457933 -0.0396,0.06413 -0.65968,0.116607 -1.37786,0.116607 -0.71818,0 -1.33822,-0.05247 -1.37785,-0.116607 z m 12.88683,2.867359 c 0.0707,-0.132067 0.20925,-0.240121 0.30793,-0.240121 0.24299,0 0.33983,-0.297744 0.33983,-1.044881 0,-0.828998 -0.32689,-1.128641 -1.57788,-1.446332 -1.05171,-0.267086 -1.3358,-0.522462 -0.97857,-0.879685 0.21956,-0.219567 0.92322,-0.223328 1.56541,-0.0084 0.37603,0.125867 0.78192,-0.202929 0.67324,-0.545362 -0.11429,-0.360085 -1.151,-0.75376 -1.73528,-0.658944 -0.83302,0.13518 -1.34799,0.472692 -1.57077,1.029491 -0.17944,0.448442 -0.18376,0.58177 -0.0307,0.947824 0.24106,0.576684 0.40059,0.680299 1.47432,0.957547 0.50873,0.131361 0.99929,0.29576 1.09014,0.365331 0.25674,0.196616 0.19511,0.586735 -0.12851,0.813403 -0.32751,0.229398 -1.23148,0.278363 -1.35805,0.07356 -0.13876,-0.224513 -0.839,-0.15194 -0.97436,0.100981 -0.1986,0.371086 0.1574,0.709378 0.92951,0.883273 0.82764,0.1864 1.77749,0.01907 1.97379,-0.347718 z m -53.556094,0.05147 c 0.855731,-0.456911 1.566865,-1.162327 1.937683,-1.922106 0.452263,-0.926649 0.497662,-2.656259 0.09369,-3.569498 -0.39292,-0.888263 -1.402595,-1.8396668 -2.314375,-2.1808078 -0.69742,-0.260938 -1.009046,-0.283208 -3.96295,-0.283208 -2.317377,0 -3.249959,0.04395 -3.364575,0.158566 -0.232043,0.232043 -0.225821,7.7810028 0.0066,8.0160838 0.126878,0.128326 0.961703,0.15743 3.600774,0.125531 3.287647,-0.03974 3.460042,-0.05458 4.003143,-0.344561 z m -6.623889,-0.643959 c -0.04845,-0.04845 -0.08809,-1.475545 -0.08809,-3.171323 0,-2.375839 0.0379,-3.0843718 0.165173,-3.0882048 1.698714,-0.05116 5.613923,0.04845 5.879968,0.149599 0.616189,0.2342748 1.442422,1.0122318 1.734124,1.6327988 0.571931,1.216734 0.254701,2.775635 -0.743113,3.651727 -0.938198,0.82375 -1.355756,0.913496 -4.250176,0.913496 -1.435385,0 -2.649434,-0.03964 -2.697883,-0.08809 z m 23.273664,0.680947 c 0.02163,-0.144379 0.0864,-0.911351 0.143941,-1.704382 0.101373,-1.397053 0.117672,-1.453531 0.524357,-1.816903 0.310888,-0.277779 0.555049,-0.375031 0.941552,-0.375031 0.693864,0 0.940772,-0.383177 0.518806,-0.805143 -0.23856,-0.23856 -0.367847,-0.267233 -0.828894,-0.18383 -0.460071,0.08323 -1.108559,0.147271 -1.900667,0.18771 -0.125854,0.0064 -0.165173,0.587732 -0.165173,2.441983 0,2.498222 0.02323,2.610008 0.528554,2.543996 0.109014,-0.01424 0.215901,-0.14402 0.237524,-0.2884 z m 17.310469,0.173549 c 0.10632,-0.106322 0.15856,-0.699802 0.15856,-1.801301 0,-1.642736 0,-1.642736 0.4719,-2.087788 0.55285,-0.521407 1.09623,-0.581964 1.60823,-0.179227 0.58721,0.461901 0.69478,0.839973 0.69478,2.441937 0,1.596129 0.1128,1.892772 0.65435,1.720889 0.25511,-0.08097 0.27062,-0.188028 0.27062,-1.867418 0,-1.984917 -0.0781,-2.254333 -0.84933,-2.931516 -0.64841,-0.569317 -1.69589,-0.70522 -2.64079,-0.342627 -0.1763,0.06765 -0.20976,-0.03835 -0.20976,-0.664665 0,-0.651282 -0.0375,-0.75935 -0.29731,-0.85782 -0.59533,-0.2255938 -0.62766,-0.05655 -0.62766,3.282254 0,3.118327 0.044,3.445848 0.46249,3.445848 0.0799,0 0.21671,-0.07135 0.30392,-0.158566 z m 13.08171,0 c 0.10465,-0.104649 0.15956,-0.677517 0.1615,-1.684765 0.002,-1.246189 0.0448,-1.577909 0.23124,-1.808046 0.31596,-0.390052 0.7247,-0.577054 1.26132,-0.577054 0.35162,0 0.47231,-0.0633 0.5282,-0.277021 0.0398,-0.152362 0.041,-0.358863 0.003,-0.458891 -0.10243,-0.266952 -0.90849,-0.378422 -1.36601,-0.188908 -0.21581,0.08939 -0.58646,0.133043 -0.82367,0.09701 -0.85961,-0.13058 -0.89378,-0.04818 -0.89378,2.155638 0,1.088571 0.0551,2.082473 0.1225,2.208671 0.0674,0.126197 0.15469,0.333508 0.19406,0.460691 0.0828,0.267617 0.35327,0.301389 0.58199,0.07268 z"
       id="path210" />
  </g>
</svg>
