<svg version="1.1" id="Layer_1" xmlns="http://www.w3.org/2000/svg" xmlns:xlink="http://www.w3.org/1999/xlink" x="0px" y="0px"
	 width="100%" viewBox="0 0 377 86" enable-background="new 0 0 377 86" xml:space="preserve">
<path fill="#0F73FF" opacity="1.000000" stroke="none" 
	d="
M316.000000,87.000000 
	C210.666672,87.000000 105.833359,87.000000 1.000028,87.000000 
	C1.000019,58.333351 1.000019,29.666698 1.000009,1.000036 
	C126.666634,1.000024 252.333267,1.000024 377.999939,1.000012 
	C377.999939,29.666632 377.999939,58.333263 377.999969,86.999947 
	C357.500000,87.000000 337.000000,87.000000 316.000000,87.000000 
M61.499996,5.999990 
	C43.083637,5.999990 24.667280,5.999990 6.363761,5.999990 
	C6.363761,31.402031 6.363761,56.126060 6.363761,81.237686 
	C33.348545,81.237686 59.969872,81.237686 86.699280,81.237686 
	C86.699280,55.760395 86.699280,31.046492 86.699280,5.999990 
	C78.434349,5.999990 70.467171,5.999990 61.499996,5.999990 
M126.133392,58.202579 
	C133.681610,58.468273 141.229004,58.913181 148.778259,58.947136 
	C155.741440,58.978455 162.190399,51.952431 162.939972,43.995144 
	C163.484253,38.217133 156.433441,29.450245 150.251419,29.117434 
	C142.344208,28.691750 134.396713,29.014116 126.020172,29.014116 
	C126.020172,38.723507 126.020172,47.990475 126.133392,58.202579 
M183.346283,50.999943 
	C184.813293,50.999943 186.280319,50.999943 187.718933,50.999943 
	C188.073380,45.207237 184.995224,41.096748 179.866669,40.041668 
	C175.871552,39.219761 171.032043,42.924126 169.508209,47.970474 
	C168.342255,51.831600 171.008652,56.839405 175.181396,58.625404 
	C179.202133,60.346340 182.951736,59.051178 185.540558,54.593742 
	C180.357361,56.735031 175.452652,58.529720 171.841034,50.999870 
	C175.731339,50.999870 179.072723,50.999870 183.346283,50.999943 
M314.917419,40.430725 
	C309.328552,39.921623 304.588104,43.405998 303.979553,48.255680 
	C303.168427,54.720123 306.837830,58.082092 312.210236,59.570610 
	C315.342285,60.438412 319.069794,57.652603 319.636108,54.422462 
	C310.765808,58.119541 309.453827,57.811192 306.996155,50.657356 
	C312.395935,50.657356 317.525482,50.657356 322.938965,50.657356 
	C321.383484,45.927647 320.711884,41.636662 314.917419,40.430725 
M287.379547,39.999939 
	C286.076477,39.999939 284.773407,39.999939 283.335266,39.999939 
	C283.059845,38.157143 282.834106,36.646492 282.563782,34.837711 
	C279.373779,38.560493 278.917175,53.927959 282.341400,58.319244 
	C283.000061,55.142014 282.868347,51.954933 283.056671,48.786869 
	C283.148132,47.248150 283.370697,45.142963 284.368134,44.367985 
	C285.836304,43.227264 288.711761,42.001160 289.800171,42.689426 
	C291.680084,43.878223 293.313660,46.352016 293.840363,48.573624 
	C294.616058,51.845150 294.329590,55.368496 294.495514,58.784580 
	C297.845581,54.770004 297.716736,46.415874 294.791016,43.504688 
	C293.110352,41.832397 290.458862,41.135822 287.379547,39.999939 
M231.001144,49.612522 
	C231.009003,50.277359 230.885040,50.976063 231.045761,51.601627 
	C232.250290,56.289875 235.790421,59.342663 240.081848,59.242416 
	C243.129501,59.171219 246.520874,56.551205 249.012009,54.257645 
	C252.176941,51.343716 250.901886,47.241058 248.630432,44.650105 
	C246.676605,42.421478 243.178650,40.227783 240.429184,40.306767 
	C235.609680,40.445210 232.182129,43.773739 231.001144,49.612522 
M357.315186,56.916004 
	C359.882538,52.135094 358.606903,49.694336 352.815338,48.006210 
	C351.172241,47.527275 349.631531,46.696918 348.043884,46.027729 
	C348.146301,45.335236 348.248718,44.642742 348.351135,43.950253 
	C351.206573,43.728306 354.061981,43.506359 357.298004,43.254826 
	C354.969727,40.037075 352.065338,39.589504 349.205505,41.151131 
	C347.571136,42.043602 345.227020,45.019875 345.557587,45.529114 
	C346.843445,47.509914 349.055420,48.898922 350.964050,50.457588 
	C351.320160,50.748371 351.936523,50.711521 352.311768,50.989323 
	C353.554169,51.909119 354.741211,52.903664 355.949524,53.869518 
	C354.253662,54.890854 352.664429,56.299248 350.826660,56.805664 
	C349.464630,57.180988 347.779541,56.383980 346.238342,56.109207 
	C350.198761,59.809425 352.760925,59.843513 357.315186,56.916004 
M195.940445,42.616570 
	C194.056091,48.149506 194.654678,48.851696 202.145172,51.084988 
	C203.257095,51.416508 204.047211,52.827320 204.986206,53.738811 
	C204.088104,54.600601 203.283295,56.044724 202.273041,56.206600 
	C199.955185,56.577991 197.537155,56.324173 193.977951,56.324173 
	C198.285568,59.785057 201.851746,59.820179 205.251099,57.783680 
	C206.545563,57.008179 207.922562,54.936314 207.829849,53.551117 
	C207.562881,49.562279 203.996994,48.967964 200.916382,47.950245 
	C199.548233,47.498257 198.353867,46.520187 197.080627,45.780910 
	C197.151886,45.171635 197.223129,44.562363 197.294373,43.953087 
	C200.162979,43.689701 203.031586,43.426315 205.791748,43.172886 
	C202.724457,39.363483 202.507278,39.336559 195.940445,42.616570 
M270.137390,55.947739 
	C266.939850,57.029354 263.538666,57.926910 261.304688,54.569698 
	C259.529816,51.902409 258.429047,48.604855 260.894745,45.697903 
	C263.579834,42.532307 266.958466,42.247101 270.658203,44.135941 
	C271.215607,44.420502 272.250122,43.770504 273.585571,43.413277 
	C266.531097,38.065704 261.154510,40.140793 257.895386,45.647697 
	C255.856674,49.092495 257.039795,54.150417 260.564331,57.049034 
	C263.875092,59.771835 269.403992,59.983231 272.017029,57.379559 
	C272.449554,56.948612 272.410156,56.044102 272.588867,55.358440 
	C272.012726,55.452087 271.436615,55.545731 270.137390,55.947739 
M330.002075,57.349289 
	C330.369049,57.896801 330.736053,58.444309 331.501587,59.586433 
	C333.150604,52.571785 328.430878,43.218052 340.677612,42.409019 
	C336.316986,39.717758 329.272430,40.503471 329.166595,43.245796 
	C328.996979,47.640923 329.612396,52.066345 330.002075,57.349289 
M224.832047,42.518639 
	C222.167496,37.472305 218.396652,43.032429 215.510147,41.032066 
	C215.510147,47.302315 215.510147,53.063549 215.510147,58.824780 
	C216.006805,58.838078 216.503479,58.851376 217.000137,58.864674 
	C217.000137,56.532597 216.914734,54.196796 217.016266,51.869148 
	C217.315079,45.018642 218.267303,43.863991 224.832047,42.518639 
z"/>
<path fill="#FFFFFF" opacity="1.000000" stroke="none" 
	d="
M61.999992,5.999990 
	C70.467171,5.999990 78.434349,5.999990 86.699280,5.999990 
	C86.699280,31.046492 86.699280,55.760395 86.699280,81.237686 
	C59.969872,81.237686 33.348545,81.237686 6.363761,81.237686 
	C6.363761,56.126060 6.363761,31.402031 6.363761,5.999990 
	C24.667280,5.999990 43.083637,5.999990 61.999992,5.999990 
M68.689484,38.205345 
	C66.067558,35.456928 63.935925,31.683035 60.732273,30.151321 
	C50.905579,25.453039 40.371567,29.092997 30.245260,27.942362 
	C30.245260,39.355946 30.245260,49.965343 30.245260,61.000053 
	C32.775421,61.000053 35.067253,61.000069 37.359081,61.000050 
	C42.525734,61.000000 47.692390,61.003071 52.859039,60.999233 
	C65.016029,60.990204 71.081543,52.686695 68.689484,38.205345 
z"/>
<path fill="#FFFFFF" opacity="1.000000" stroke="none" 
	d="
M126.076782,57.730011 
	C126.020172,47.990475 126.020172,38.723507 126.020172,29.014116 
	C134.396713,29.014116 142.344208,28.691750 150.251419,29.117434 
	C156.433441,29.450245 163.484253,38.217133 162.939972,43.995144 
	C162.190399,51.952431 155.741440,58.978455 148.778259,58.947136 
	C141.229004,58.913181 133.681610,58.468273 126.076782,57.730011 
M132.107498,56.603634 
	C138.650986,56.393715 145.234711,56.555134 151.724731,55.851776 
	C156.574905,55.326134 160.194199,49.035706 159.999390,42.943260 
	C159.842651,38.041584 155.478073,32.261753 151.164917,32.087288 
	C143.924484,31.794426 136.663605,32.007156 129.008804,32.007156 
	C129.008804,39.604660 128.936386,46.704117 129.111298,53.797478 
	C129.130600,54.579849 130.565430,55.327312 132.107498,56.603634 
z"/>
<path fill="#FFFFFF" opacity="1.000000" stroke="none" 
	d="
M182.880188,50.999908 
	C179.072723,50.999870 175.731339,50.999870 171.841034,50.999870 
	C175.452652,58.529720 180.357361,56.735031 185.540558,54.593742 
	C182.951736,59.051178 179.202133,60.346340 175.181396,58.625404 
	C171.008652,56.839405 168.342255,51.831600 169.508209,47.970474 
	C171.032043,42.924126 175.871552,39.219761 179.866669,40.041668 
	C184.995224,41.096748 188.073380,45.207237 187.718933,50.999943 
	C186.280319,50.999943 184.813293,50.999943 182.880188,50.999908 
M175.943604,47.999016 
	C178.930862,47.999016 181.918121,47.999016 185.658722,47.999016 
	C181.037430,41.981949 176.583359,41.470604 173.878204,45.801311 
	C173.662994,46.145870 174.657074,47.245792 175.943604,47.999016 
z"/>
<path fill="#FFFFFF" opacity="1.000000" stroke="none" 
	d="
M315.229553,40.674911 
	C320.711884,41.636662 321.383484,45.927647 322.938965,50.657356 
	C317.525482,50.657356 312.395935,50.657356 306.996155,50.657356 
	C309.453827,57.811192 310.765808,58.119541 319.636108,54.422462 
	C319.069794,57.652603 315.342285,60.438412 312.210236,59.570610 
	C306.837830,58.082092 303.168427,54.720123 303.979553,48.255680 
	C304.588104,43.405998 309.328552,39.921623 315.229553,40.674911 
M316.910095,47.994770 
	C317.346436,47.250443 318.345947,46.154594 318.133942,45.814915 
	C315.306793,41.285275 309.999390,42.150398 307.059082,47.999256 
	C310.211670,47.999256 313.131775,47.999256 316.910095,47.994770 
z"/>
<path fill="#FFFFFF" opacity="1.000000" stroke="none" 
	d="
M287.811981,39.999969 
	C290.458862,41.135822 293.110352,41.832397 294.791016,43.504688 
	C297.716736,46.415874 297.845581,54.770004 294.495514,58.784580 
	C294.329590,55.368496 294.616058,51.845150 293.840363,48.573624 
	C293.313660,46.352016 291.680084,43.878223 289.800171,42.689426 
	C288.711761,42.001160 285.836304,43.227264 284.368134,44.367985 
	C283.370697,45.142963 283.148132,47.248150 283.056671,48.786869 
	C282.868347,51.954933 283.000061,55.142014 282.341400,58.319244 
	C278.917175,53.927959 279.373779,38.560493 282.563782,34.837711 
	C282.834106,36.646492 283.059845,38.157143 283.335266,39.999939 
	C284.773407,39.999939 286.076477,39.999939 287.811981,39.999969 
z"/>
<path fill="#FFFFFF" opacity="1.000000" stroke="none" 
	d="
M231.003815,49.208748 
	C232.182129,43.773739 235.609680,40.445210 240.429184,40.306767 
	C243.178650,40.227783 246.676605,42.421478 248.630432,44.650105 
	C250.901886,47.241058 252.176941,51.343716 249.012009,54.257645 
	C246.520874,56.551205 243.129501,59.171219 240.081848,59.242416 
	C235.790421,59.342663 232.250290,56.289875 231.045761,51.601627 
	C230.885040,50.976063 231.009003,50.277359 231.003815,49.208748 
M234.878616,46.558151 
	C232.270645,52.120323 235.007675,55.107960 239.239838,56.458027 
	C242.593491,57.527847 245.717712,55.935291 247.370941,52.224453 
	C248.899902,48.792507 247.312744,46.333939 244.924362,44.585804 
	C241.519547,42.093712 237.957809,42.160957 234.878616,46.558151 
z"/>
<path fill="#FFFFFF" opacity="1.000000" stroke="none" 
	d="
M356.925232,57.002071 
	C352.760925,59.843513 350.198761,59.809425 346.238342,56.109207 
	C347.779541,56.383980 349.464630,57.180988 350.826660,56.805664 
	C352.664429,56.299248 354.253662,54.890854 355.949524,53.869518 
	C354.741211,52.903664 353.554169,51.909119 352.311768,50.989323 
	C351.936523,50.711521 351.320160,50.748371 350.964050,50.457588 
	C349.055420,48.898922 346.843445,47.509914 345.557587,45.529114 
	C345.227020,45.019875 347.571136,42.043602 349.205505,41.151131 
	C352.065338,39.589504 354.969727,40.037075 357.298004,43.254826 
	C354.061981,43.506359 351.206573,43.728306 348.351135,43.950253 
	C348.248718,44.642742 348.146301,45.335236 348.043884,46.027729 
	C349.631531,46.696918 351.172241,47.527275 352.815338,48.006210 
	C358.606903,49.694336 359.882538,52.135094 356.925232,57.002071 
z"/>
<path fill="#FFFFFF" opacity="1.000000" stroke="none" 
	d="
M196.238647,42.354218 
	C202.507278,39.336559 202.724457,39.363483 205.791748,43.172886 
	C203.031586,43.426315 200.162979,43.689701 197.294373,43.953087 
	C197.223129,44.562363 197.151886,45.171635 197.080627,45.780910 
	C198.353867,46.520187 199.548233,47.498257 200.916382,47.950245 
	C203.996994,48.967964 207.562881,49.562279 207.829849,53.551117 
	C207.922562,54.936314 206.545563,57.008179 205.251099,57.783680 
	C201.851746,59.820179 198.285568,59.785057 193.977951,56.324173 
	C197.537155,56.324173 199.955185,56.577991 202.273041,56.206600 
	C203.283295,56.044724 204.088104,54.600601 204.986206,53.738808 
	C204.047211,52.827320 203.257095,51.416508 202.145172,51.084988 
	C194.654678,48.851696 194.056091,48.149506 196.238647,42.354218 
z"/>
<path fill="#FFFFFF" opacity="1.000000" stroke="none" 
	d="
M270.498932,55.793556 
	C271.436615,55.545731 272.012726,55.452087 272.588867,55.358440 
	C272.410156,56.044102 272.449554,56.948612 272.017029,57.379559 
	C269.403992,59.983231 263.875092,59.771835 260.564331,57.049034 
	C257.039795,54.150417 255.856674,49.092495 257.895386,45.647697 
	C261.154510,40.140793 266.531097,38.065704 273.585571,43.413277 
	C272.250122,43.770504 271.215607,44.420502 270.658203,44.135941 
	C266.958466,42.247101 263.579834,42.532307 260.894745,45.697903 
	C258.429047,48.604855 259.529816,51.902409 261.304688,54.569698 
	C263.538666,57.926910 266.939850,57.029354 270.498932,55.793556 
z"/>
<path fill="#FFFFFF" opacity="1.000000" stroke="none" 
	d="
M329.949036,56.914127 
	C329.612396,52.066345 328.996979,47.640923 329.166595,43.245796 
	C329.272430,40.503471 336.316986,39.717758 340.677612,42.409019 
	C328.430878,43.218052 333.150604,52.571785 331.501587,59.586433 
	C330.736053,58.444309 330.369049,57.896801 329.949036,56.914127 
z"/>
<path fill="#FFFFFF" opacity="1.000000" stroke="none" 
	d="
M224.487778,42.721622 
	C218.267303,43.863991 217.315079,45.018642 217.016266,51.869148 
	C216.914734,54.196796 217.000137,56.532597 217.000137,58.864674 
	C216.503479,58.851376 216.006805,58.838078 215.510147,58.824780 
	C215.510147,53.063549 215.510147,47.302315 215.510147,41.032066 
	C218.396652,43.032429 222.167496,37.472305 224.487778,42.721622 
z"/>
<path fill="#0F73FF" opacity="1.000000" stroke="none" 
	d="
M68.821411,38.588066 
	C71.081543,52.686695 65.016029,60.990204 52.859039,60.999233 
	C47.692390,61.003071 42.525734,61.000000 37.359081,61.000050 
	C35.067253,61.000069 32.775421,61.000053 30.245260,61.000053 
	C30.245260,49.965343 30.245260,39.355946 30.245260,27.942362 
	C40.371567,29.092997 50.905579,25.453039 60.732273,30.151321 
	C63.935925,31.683035 66.067558,35.456928 68.821411,38.588066 
M34.999821,37.652885 
	C34.999821,43.715103 34.999821,49.777325 34.999821,55.999016 
	C41.548080,55.999016 47.350689,56.109940 53.147095,55.967884 
	C58.971119,55.825157 64.599091,50.377457 64.958488,44.803749 
	C65.261665,40.101959 60.090080,33.599232 54.849178,33.152290 
	C48.917091,32.646408 42.904148,32.902088 36.942612,33.177891 
	C36.242470,33.210281 35.645138,35.464973 34.999821,37.652885 
z"/>
<path fill="#0F73FF" opacity="1.000000" stroke="none" 
	d="
M131.725616,56.347298 
	C130.565430,55.327312 129.130600,54.579849 129.111298,53.797478 
	C128.936386,46.704117 129.008804,39.604660 129.008804,32.007156 
	C136.663605,32.007156 143.924484,31.794426 151.164917,32.087288 
	C155.478073,32.261753 159.842651,38.041584 159.999390,42.943260 
	C160.194199,49.035706 156.574905,55.326134 151.724731,55.851776 
	C145.234711,56.555134 138.650986,56.393715 131.725616,56.347298 
z"/>
<path fill="#0F74FF" opacity="1.000000" stroke="none" 
	d="
M175.516388,47.996845 
	C174.657074,47.245792 173.662994,46.145870 173.878204,45.801311 
	C176.583359,41.470604 181.037430,41.981949 185.658722,47.999016 
	C181.918121,47.999016 178.930862,47.999016 175.516388,47.996845 
z"/>
<path fill="#0F73FF" opacity="1.000000" stroke="none" 
	d="
M316.480988,47.997013 
	C313.131775,47.999256 310.211670,47.999256 307.059082,47.999256 
	C309.999390,42.150398 315.306793,41.285275 318.133942,45.814915 
	C318.345947,46.154594 317.346436,47.250443 316.480988,47.997013 
z"/>
<path fill="#0F73FF" opacity="1.000000" stroke="none" 
	d="
M234.965744,46.163147 
	C237.957809,42.160957 241.519547,42.093712 244.924362,44.585804 
	C247.312744,46.333939 248.899902,48.792507 247.370941,52.224453 
	C245.717712,55.935291 242.593491,57.527847 239.239838,56.458027 
	C235.007675,55.107960 232.270645,52.120323 234.965744,46.163147 
z"/>
<path fill="#FFFFFF" opacity="1.000000" stroke="none" 
	d="
M34.999985,37.171173 
	C35.645138,35.464973 36.242470,33.210281 36.942612,33.177891 
	C42.904148,32.902088 48.917091,32.646408 54.849178,33.152290 
	C60.090080,33.599232 65.261665,40.101959 64.958488,44.803749 
	C64.599091,50.377457 58.971119,55.825157 53.147095,55.967884 
	C47.350689,56.109940 41.548080,55.999016 34.999821,55.999016 
	C34.999821,49.777325 34.999821,43.715103 34.999985,37.171173 
z"/>
</svg>